<svg width="24" height="24" viewBox="0 0 24 24" fill="none" xmlns="http://www.w3.org/2000/svg">
<path d="M24 12C24 18.6273 18.6273 24 12 24C5.37333 24 0 18.6273 0 12C0 5.37333 5.37333 0 12 0C18.6273 0 24 5.37333 24 12Z" fill="#FFC700"/>
<path d="M7.66667 12C8.58714 12 9.33333 10.3583 9.33333 8.33329C9.33333 6.30825 8.58714 4.66663 7.66667 4.66663C6.74619 4.66663 6 6.30825 6 8.33329C6 10.3583 6.74619 12 7.66667 12Z" fill="black"/>
<path d="M16.3334 12C17.2539 12 18.0001 10.3583 18.0001 8.33329C18.0001 6.30825 17.2539 4.66663 16.3334 4.66663C15.4129 4.66663 14.6667 6.30825 14.6667 8.33329C14.6667 10.3583 15.4129 12 16.3334 12Z" fill="black"/>
<path d="M11.9998 14.6666C9.5845 14.6666 7.98184 14.3853 5.99984 14C5.54717 13.9126 4.6665 14 4.6665 15.3333C4.6665 18 7.72984 21.3333 11.9998 21.3333C16.2692 21.3333 19.3332 18 19.3332 15.3333C19.3332 14 18.4525 13.912 17.9998 14C16.0178 14.3853 14.4152 14.6666 11.9998 14.6666Z" fill="black"/>
<path d="M6 15.3333C6 15.3333 8 15.9999 12 15.9999C16 15.9999 18 15.3333 18 15.3333C18 15.3333 16.6667 17.9999 12 17.9999C7.33333 17.9999 6 15.3333 6 15.3333Z" fill="white"/>
</svg>
