<svg width="24" height="24" viewBox="0 0 24 24" fill="none" xmlns="http://www.w3.org/2000/svg">
<path d="M12 24C18.6274 24 24 18.6274 24 12C24 5.37258 18.6274 0 12 0C5.37258 0 0 5.37258 0 12C0 18.6274 5.37258 24 12 24Z" fill="#FFC700"/>
<path d="M7.01002 15.7473C7.04002 15.8667 7.78869 18.6667 12 18.6667C16.212 18.6667 16.96 15.8667 16.99 15.7473C17.0075 15.677 17.0016 15.6028 16.9731 15.5361C16.9445 15.4694 16.895 15.4139 16.832 15.378C16.7687 15.3422 16.6956 15.3279 16.6235 15.3371C16.5514 15.3464 16.4842 15.3787 16.432 15.4293C16.4194 15.442 15.1294 16.6667 12 16.6667C8.87069 16.6667 7.58002 15.442 7.56802 15.43C7.51641 15.379 7.44961 15.3461 7.37771 15.3364C7.3058 15.3267 7.23268 15.3406 7.16936 15.376C7.1058 15.4119 7.05579 15.4677 7.02701 15.5348C6.99822 15.6018 6.99226 15.6765 7.01002 15.7473Z" fill="black"/>
<path d="M8.00016 11.3334C8.92064 11.3334 9.66683 10.2887 9.66683 9.00008C9.66683 7.71142 8.92064 6.66675 8.00016 6.66675C7.07969 6.66675 6.3335 7.71142 6.3335 9.00008C6.3335 10.2887 7.07969 11.3334 8.00016 11.3334Z" fill="black"/>
<path d="M15.9999 11.3334C16.9204 11.3334 17.6666 10.2887 17.6666 9.00008C17.6666 7.71142 16.9204 6.66675 15.9999 6.66675C15.0794 6.66675 14.3333 7.71142 14.3333 9.00008C14.3333 10.2887 15.0794 11.3334 15.9999 11.3334Z" fill="black"/>
</svg>
