<svg width="24" height="24" viewBox="0 0 24 24" fill="none" xmlns="http://www.w3.org/2000/svg">
<path d="M24 12C24 18.6273 18.6273 24 12 24C5.37333 24 0 18.6273 0 12C0 5.37333 5.37333 0 12 0C18.6273 0 24 5.37333 24 12Z" fill="#FF8311"/>
<path d="M7.66667 13.3334C8.58714 13.3334 9.33333 12.2887 9.33333 11.0001C9.33333 9.71142 8.58714 8.66675 7.66667 8.66675C6.74619 8.66675 6 9.71142 6 11.0001C6 12.2887 6.74619 13.3334 7.66667 13.3334Z" fill="black"/>
<path d="M16.3332 13.3334C17.2536 13.3334 17.9998 12.2887 17.9998 11.0001C17.9998 9.71142 17.2536 8.66675 16.3332 8.66675C15.4127 8.66675 14.6665 9.71142 14.6665 11.0001C14.6665 12.2887 15.4127 13.3334 16.3332 13.3334Z" fill="black"/>
<path d="M16.6665 17.3333H7.33317C7.15636 17.3333 6.98679 17.2631 6.86177 17.1381C6.73674 17.013 6.6665 16.8435 6.6665 16.6667C6.6665 16.4899 6.73674 16.3203 6.86177 16.1953C6.98679 16.0702 7.15636 16 7.33317 16H16.6665C16.8433 16 17.0129 16.0702 17.1379 16.1953C17.2629 16.3203 17.3332 16.4899 17.3332 16.6667C17.3332 16.8435 17.2629 17.013 17.1379 17.1381C17.0129 17.2631 16.8433 17.3333 16.6665 17.3333Z" fill="black"/>
</svg>
