<svg width="24" height="24" viewBox="0 0 24 24" fill="none" xmlns="http://www.w3.org/2000/svg">
<path d="M12 24C18.6274 24 24 18.6274 24 12C24 5.37258 18.6274 0 12 0C5.37258 0 0 5.37258 0 12C0 18.6274 5.37258 24 12 24Z" fill="#FF8311"/>
<path d="M16.9901 18.2527C16.9601 18.1334 16.2114 15.3334 12.0001 15.3334C7.7881 15.3334 7.0401 18.1334 7.0101 18.2527C6.99258 18.3231 6.99853 18.3972 7.02706 18.4639C7.05558 18.5306 7.10511 18.5861 7.1681 18.622C7.23138 18.6578 7.30453 18.6721 7.37663 18.6629C7.44873 18.6536 7.5159 18.6213 7.5681 18.5707C7.58076 18.558 8.87076 17.3334 12.0001 17.3334C15.1294 17.3334 16.4201 18.558 16.4321 18.57C16.4837 18.621 16.5505 18.6539 16.6224 18.6636C16.6943 18.6734 16.7674 18.6595 16.8308 18.624C16.8943 18.5881 16.9443 18.5324 16.9731 18.4653C17.0019 18.3982 17.0079 18.3235 16.9901 18.2527Z" fill="black"/>
<path d="M7.99992 11.3334C8.92039 11.3334 9.66658 10.2887 9.66658 9.00008C9.66658 7.71142 8.92039 6.66675 7.99992 6.66675C7.07944 6.66675 6.33325 7.71142 6.33325 9.00008C6.33325 10.2887 7.07944 11.3334 7.99992 11.3334Z" fill="black"/>
<path d="M15.9999 11.3334C16.9204 11.3334 17.6666 10.2887 17.6666 9.00008C17.6666 7.71142 16.9204 6.66675 15.9999 6.66675C15.0794 6.66675 14.3333 7.71142 14.3333 9.00008C14.3333 10.2887 15.0794 11.3334 15.9999 11.3334Z" fill="black"/>
</svg>
